<?xml version="1.0" standalone="no"?><!DOCTYPE svg PUBLIC "-//W3C//DTD SVG 1.1//EN" "http://www.w3.org/Graphics/SVG/1.1/DTD/svg11.dtd"><svg class="icon" width="128px" height="128.00px" viewBox="0 0 1024 1024" version="1.1" xmlns="http://www.w3.org/2000/svg"><path d="M512 512m-512 0a512 512 0 1 0 1024 0 512 512 0 1 0-1024 0Z" fill="#D0C4AF" /><path d="M431.786667 752.64c-5.973333 0-12.8-2.56-17.92-6.826667-10.24-9.386667-11.093333-25.6-0.853334-35.84L599.04 512 413.013333 314.026667c-9.386667-10.24-9.386667-26.453333 0.853334-35.84 10.24-9.386667 26.453333-9.386667 35.84 0.853333l203.093333 215.04c9.386667 10.24 9.386667 25.6 0 34.986667L450.56 744.96c-5.12 5.12-11.946667 7.68-18.773333 7.68z" fill="#FFFFFF" /></svg>