<?xml version="1.0" standalone="no"?><!DOCTYPE svg PUBLIC "-//W3C//DTD SVG 1.1//EN" "http://www.w3.org/Graphics/SVG/1.1/DTD/svg11.dtd"><svg class="icon" width="128px" height="128.00px" viewBox="0 0 1024 1024" version="1.1" xmlns="http://www.w3.org/2000/svg"><path d="M512 512m-512 0a512 512 0 1 0 1024 0 512 512 0 1 0-1024 0Z" fill="#B19E7A" /><path d="M592.213333 752.64c-6.826667 0-13.653333-2.56-18.773333-7.68L370.346667 529.92c-9.386667-10.24-9.386667-25.6 0-34.986667l203.093333-215.04c9.386667-10.24 25.6-11.093333 35.84-0.853333 10.24 9.386667 11.093333 25.6 0.853333 35.84L424.96 512l186.88 197.973333c9.386667 10.24 9.386667 26.453333-0.853333 35.84-5.973333 5.12-11.946667 6.826667-18.773334 6.826667z" fill="#FFFFFF" /></svg>