<?xml version="1.0" standalone="no"?><!DOCTYPE svg PUBLIC "-//W3C//DTD SVG 1.1//EN" "http://www.w3.org/Graphics/SVG/1.1/DTD/svg11.dtd"><svg class="icon" width="200px" height="200.00px" viewBox="0 0 1024 1024" version="1.1" xmlns="http://www.w3.org/2000/svg"><path d="M709.688889 516.266667c-96.711111 0-160.711111-93.866667-162.133333-95.288889-7.111111-9.955556-19.911111-24.177778-31.288889-22.755556-12.8 1.422222-22.755556 17.066667-27.022223 22.755556-12.8 29.866667-28.444444 48.355556-49.777777 56.888889-17.066667 5.688889-35.555556 4.266667-54.044445-4.266667-17.066667-8.533333-25.6-28.444444-19.911111-46.933333l15.644445-55.466667c8.533333-28.444444 28.444444-52.622222 56.888888-64l61.155556-27.022222c27.022222-11.377778 51.2-8.533333 78.222222-2.844445l167.822222 39.822223 68.266667 160.711111-9.955555 7.111111c-31.288889 22.755556-64 31.288889-93.866667 31.288889z m-192-146.488889c18.488889 0 36.977778 11.377778 54.044444 34.133333 4.266667 5.688889 91.022222 132.266667 210.488889 62.577778l-54.044444-126.577778-153.6-36.977778c-25.6-5.688889-42.666667-7.111111-61.155556 1.422223l-61.155555 27.022222c-19.911111 8.533333-34.133333 25.6-39.822223 45.511111l-15.644444 55.466667c-1.422222 5.688889 1.422222 11.377778 5.688889 12.8 11.377778 5.688889 21.333333 7.111111 31.288889 2.844444 12.8-4.266667 24.177778-18.488889 34.133333-41.244444v-1.422223c1.422222-4.266667 18.488889-35.555556 49.777778-38.4-2.844444 2.844444-1.422222 2.844444 0 2.844445z" fill="#F39800" /><path d="M721.066667 603.022222l-100.977778-140.8 45.511111 18.488889c2.844444 1.422222 71.111111 28.444444 123.733333-18.488889l14.222223-12.8 48.355555 112.355556-130.844444 41.244444z m-27.022223-86.755555l38.4 52.622222 81.066667-25.6-21.333333-48.355556c-34.133333 22.755556-71.111111 24.177778-98.133334 21.333334zM187.733333 570.311111l-130.844444-51.2 9.955555-25.6 105.244445 41.244445 95.288889-224.711112-106.666667-44.088888 11.377778-27.022223 132.266667 56.888889z" fill="#F39800" /><path d="M836.266667 595.911111l-116.622223-274.488889 132.266667-55.466666 11.377778 25.6-106.666667 45.511111 95.288889 223.288889 105.244445-41.244445 9.955555 27.022222zM713.955556 676.977778c-14.222222 0-27.022222-5.688889-36.977778-15.644445l-125.155556-133.688889c-5.688889-5.688889-5.688889-14.222222 0-19.911111 5.688889-5.688889 14.222222-5.688889 19.911111 0l125.155556 133.688889c5.688889 5.688889 12.8 8.533333 21.333333 7.111111 8.533333-1.422222 14.222222-7.111111 17.066667-14.222222 1.422222-5.688889 1.422222-12.8-2.844445-17.066667l-91.022222-115.2c-4.266667-5.688889-4.266667-15.644444 2.844445-19.911111 5.688889-4.266667 15.644444-4.266667 19.911111 2.844445l91.022222 115.2c9.955556 12.8 12.8 29.866667 7.111111 44.088889-5.688889 17.066667-19.911111 29.866667-38.4 32.711111h-9.955555z" fill="#F39800" /><path d="M651.377778 722.488889c-18.488889 0-36.977778-7.111111-49.777778-21.333333l-105.244444-110.933334c-5.688889-5.688889-5.688889-14.222222 0-19.911111 5.688889-5.688889 14.222222-5.688889 19.911111 0l105.244444 110.933333c9.955556 9.955556 24.177778 14.222222 38.4 11.377778 14.222222-2.844444 24.177778-12.8 28.444445-27.022222v-1.422222c2.844444-7.111111 9.955556-11.377778 17.066666-9.955556 7.111111 2.844444 11.377778 9.955556 9.955556 17.066667v1.422222c-7.111111 22.755556-25.6 39.822222-49.777778 45.511111-2.844444 4.266667-8.533333 4.266667-14.222222 4.266667z" fill="#F39800" /><path d="M583.111111 763.733333h-4.266667c-17.066667-1.422222-34.133333-9.955556-46.933333-24.177777l-86.755555-96.711112c-5.688889-5.688889-4.266667-14.222222 1.422222-19.911111 5.688889-5.688889 14.222222-4.266667 19.911111 1.422223l86.755555 96.711111c7.111111 8.533333 18.488889 14.222222 28.444445 14.222222 15.644444 1.422222 29.866667-8.533333 42.666667-27.022222 4.266667-7.111111 12.8-8.533333 19.911111-4.266667 7.111111 4.266667 8.533333 12.8 4.266666 19.911111-21.333333 31.288889-46.933333 39.822222-65.422222 39.822222zM457.955556 327.111111c-75.377778-17.066667-169.244444-9.955556-170.666667-9.955555l-2.844445-28.444445c4.266667 0 99.555556-8.533333 179.2 9.955556l-5.688888 28.444444z" fill="#F39800" /><path d="M516.266667 785.066667c-12.8 0-25.6-4.266667-35.555556-14.222223l-41.244444-39.822222c-129.422222-126.577778-248.888889-210.488889-250.311111-210.488889l15.644444-22.755555c1.422222 1.422222 123.733333 85.333333 254.577778 213.333333l41.244444 39.822222c5.688889 5.688889 14.222222 7.111111 22.755556 4.266667 4.266667-1.422222 11.377778-5.688889 14.222222-15.644444l28.444444 2.844444v1.422222c-2.844444 18.488889-15.644444 32.711111-32.711111 38.4-5.688889 1.422222-11.377778 2.844444-17.066666 2.844445z" fill="#F39800" /><path d="M280.177778 634.311111c-9.955556 0-19.911111-2.844444-28.444445-9.955555-8.533333-7.111111-14.222222-17.066667-15.644444-29.866667-1.422222-11.377778 2.844444-22.755556 9.955555-31.288889l11.377778-11.377778 21.333334 18.488889-11.377778 11.377778c-2.844444 2.844444-4.266667 5.688889-2.844445 9.955555 0 4.266667 1.422222 7.111111 4.266667 9.955556 7.111111 5.688889 17.066667 4.266667 22.755556-1.422222l9.955555-11.377778 21.333333 18.488889-9.955555 11.377778c-8.533333 9.955556-21.333333 15.644444-32.711111 15.644444z" fill="#F39800" /><path d="M320 695.466667c-11.377778 0-22.755556-4.266667-31.288889-11.377778-9.955556-8.533333-15.644444-19.911111-17.066667-32.711111-1.422222-12.8 2.844444-25.6 11.377778-35.555556l21.333334-25.6 21.333333 18.488889-21.333333 25.6c-2.844444 4.266667-5.688889 9.955556-4.266667 14.222222 0 5.688889 2.844444 9.955556 7.111111 14.222223 8.533333 7.111111 21.333333 7.111111 28.444444-1.422223l24.177778-25.6 21.333334 18.488889-24.177778 25.6c-11.377778 11.377778-24.177778 15.644444-36.977778 15.644445z" fill="#F39800" /><path d="M378.311111 732.444444c-11.377778 0-24.177778-4.266667-32.711111-12.8-19.911111-18.488889-19.911111-48.355556-2.844444-68.266666l15.644444-17.066667 21.333333 18.488889-15.644444 17.066667c-7.111111 8.533333-7.111111 21.333333 1.422222 28.444444s21.333333 7.111111 28.444445-1.422222l15.644444-17.066667 21.333333 19.911111-15.644444 17.066667c-11.377778 11.377778-24.177778 15.644444-36.977778 15.644444z" fill="#F39800" /><path d="M435.2 768c-11.377778 0-22.755556-4.266667-32.711111-12.8-18.488889-17.066667-18.488889-46.933333-1.422222-65.422222l5.688889-7.111111 21.333333 19.911111-5.688889 7.111111c-7.111111 7.111111-7.111111 18.488889 0 25.6s18.488889 7.111111 25.6 0l8.533333-8.533333 19.911111 19.911111-8.533333 8.533333c-8.533333 8.533333-21.333333 12.8-32.711111 12.8z" fill="#F39800" /><path d="M1009.777778 14.222222v995.555556h-995.555556v-995.555556h995.555556m14.222222-14.222222h-1024v1024h1024v-1024z" fill="#FFFFFF" /></svg>