<?xml version="1.0" standalone="no"?><!DOCTYPE svg PUBLIC "-//W3C//DTD SVG 1.1//EN" "http://www.w3.org/Graphics/SVG/1.1/DTD/svg11.dtd"><svg class="icon" width="200px" height="200.00px" viewBox="0 0 1024 1024" version="1.1" xmlns="http://www.w3.org/2000/svg"><path fill="#333333" d="M0 170.816A170.88 170.88 0 0 1 170.816 0h682.368A170.88 170.88 0 0 1 1024 170.816v682.368A170.88 170.88 0 0 1 853.184 1024H170.816A170.88 170.88 0 0 1 0 853.184V170.816z m810.88 268.544a28.906667 28.906667 0 0 0-23.402667-19.861333l-179.221333-26.304-80.213333-163.690667A28.885333 28.885333 0 0 0 502.144 213.333333c-10.986667 0-21.013333 6.272-25.898667 16.170667l-80.170666 163.690667-179.306667 26.304a28.906667 28.906667 0 0 0-23.381333 19.84 29.546667 29.546667 0 0 0 7.296 29.909333l129.792 127.424-30.506667 179.904a29.226667 29.226667 0 0 0 11.477333 28.522667c8.917333 6.528 20.736 7.381333 30.464 2.197333l160.341334-84.992 160.341333 84.992a28.842667 28.842667 0 0 0 30.4-2.325333c8.874667-6.485333 13.354667-17.493333 11.605333-28.373334l-30.592-179.925333 129.792-127.424c7.722667-7.850667 10.453333-19.370667 7.082667-29.888z"  /></svg>