<?xml version="1.0" standalone="no"?><!DOCTYPE svg PUBLIC "-//W3C//DTD SVG 1.1//EN" "http://www.w3.org/Graphics/SVG/1.1/DTD/svg11.dtd"><svg class="icon" width="200px" height="200.00px" viewBox="0 0 1024 1024" version="1.1" xmlns="http://www.w3.org/2000/svg"><path fill="#333333" d="M124.043817 339.422572h17.873734V113.856045a107.242406 107.242406 0 0 1 30.385348-75.605896 110.102203 110.102203 0 0 1 76.857058-31.457772h525.487788a110.102203 110.102203 0 0 1 76.67832 31.636509 107.242406 107.242406 0 0 1 30.385348 75.605896v225.38779h17.873734a118.681596 118.681596 0 0 1 82.397915 33.960095 116.35801 116.35801 0 0 1 33.423884 59.698272l2.323585-1.072424v470.257949a117.430434 117.430434 0 0 1-115.106849 115.106849H124.043817a114.034425 114.034425 0 0 1-82.397915-33.781358 117.609172 117.609172 0 0 1-35.747469-83.470339V432.008515l2.323586 1.072424a116.35801 116.35801 0 0 1 32.708933-59.698272 118.681596 118.681596 0 0 1 83.112865-33.960095z m461.321082-121.720131a57.732162 57.732162 0 0 0-30.385349 10.188029 100.986599 100.986599 0 0 0-30.385348 32.708933l-12.332877 19.124896-12.869088-19.124896A125.11614 125.11614 0 0 0 475.798908 232.358903a60.949434 60.949434 0 0 0-37.177368-14.656462 71.494937 71.494937 0 0 0-53.621203 25.916915 92.764681 92.764681 0 0 0-23.593329 63.094282 79.895592 79.895592 0 0 0 8.936867 33.781358 156.573912 156.573912 0 0 0 26.989339 41.645801 854.364499 854.364499 0 0 0 71.494937 67.741452c23.593329 20.376057 42.896962 35.747469 43.969386 35.747469a536.212029 536.212029 0 0 0 43.969387-35.747469 844.533945 844.533945 0 0 0 71.494937-68.813877 190.176533 190.176533 0 0 0 26.989339-41.6458 79.895592 79.895592 0 0 0 8.936867-33.781358 92.764681 92.764681 0 0 0-23.593329-63.094282 71.494937 71.494937 0 0 0-53.621203-25.916915z m-47.365396-13.584038a85.078975 85.078975 0 0 1 47.365396-15.728886 106.169982 106.169982 0 0 1 76.67832 35.747468 125.11614 125.11614 0 0 1 30.385348 83.47034 114.034425 114.034425 0 0 1-12.332877 47.365395 204.118046 204.118046 0 0 1-31.636509 47.365396 743.904821 743.904821 0 0 1-73.282311 71.494937c-28.2405 24.844491-53.621203 42.896962-63.094282 42.896963s-35.747469-19.124896-63.094282-42.896963-56.838475-53.263728-74.712209-72.388623a208.407742 208.407742 0 0 1-30.385349-48.43782 105.276295 105.276295 0 0 1-12.332876-46.292972 125.11614 125.11614 0 0 1 30.385348-83.470339 106.169982 106.169982 0 0 1 76.67832-35.747469 89.368671 89.368671 0 0 1 55.229839 21.448481 136.197855 136.197855 0 0 1 17.873734 17.873735 132.444371 132.444371 0 0 1 25.916915-23.59333zM171.945425 339.422572v181.59714l340.494638 183.741988L853.113438 521.019712V113.856045a76.67832 76.67832 0 0 0-22.520905-55.229839 79.35938 79.35938 0 0 0-55.229839-22.520905H249.159957a79.35938 79.35938 0 0 0-55.229839 22.520905 76.67832 76.67832 0 0 0-22.520905 55.229839v225.566527z m710.480938 165.153304l105.991244-56.302263a84.900238 84.900238 0 0 0-25.916915-53.621202 89.368671 89.368671 0 0 0-62.021858-25.916915h-17.873734v135.84038zM36.641256 448.809825l105.276295 55.766051v-135.84038h-17.873734a89.368671 89.368671 0 0 0-62.021858 25.916915 84.900238 84.900238 0 0 0-25.916915 53.621202z m951.776351 32.708934l-105.991244 56.302263c-122.971292 67.741453-247.015008 134.231744-369.807563 200.722036-122.971292-66.490292-247.015008-132.980583-370.701249-200.543299l-105.276295-56.481v418.42412a86.866349 86.866349 0 0 0 25.916915 62.021858 84.185288 84.185288 0 0 0 61.485646 25.201965h783.227036a84.900238 84.900238 0 0 0 55.229839-25.916915 86.151399 86.151399 0 0 0 25.916915-59.698272v-420.032756z"  /><path fill="#333333" d="M902.623682 1023.986595H124.043817a119.932757 119.932757 0 0 1-87.223824-35.747469 124.043716 124.043716 0 0 1-36.819892-88.11751v-479.016079l4.468433 2.144848a123.328767 123.328767 0 0 1 32.530197-54.693627 125.11614 125.11614 0 0 1 87.045086-35.747468h11.260452V113.856045a114.034425 114.034425 0 0 1 32.351459-80.253067A117.07296 117.07296 0 0 1 249.159957 0.000357h525.487788a117.07296 117.07296 0 0 1 82.219177 33.423884 114.034425 114.034425 0 0 1 32.530197 80.431804v218.953245h11.260452a125.11614 125.11614 0 0 1 87.045086 35.747468 123.328767 123.328767 0 0 1 32.530197 54.693627l4.468433-2.144848v481.160927a121.541393 121.541393 0 0 1-36.99863 85.972662 119.575282 119.575282 0 0 1-85.078975 35.747469zM13.941614 442.732756v457.210123a110.817153 110.817153 0 0 0 33.066408 78.644431 108.136092 108.136092 0 0 0 77.035795 31.993984h777.507441a107.242406 107.242406 0 0 0 76.499583-31.815247 107.242406 107.242406 0 0 0 33.066408-76.499583V442.732756l-1.787373-8.579393a109.029779 109.029779 0 0 0-30.92156-56.302263 111.889577 111.889577 0 0 0-77.572007-31.815247h-25.201966v-232.358545a100.450387 100.450387 0 0 0-28.419237-71.494938 103.667659 103.667659 0 0 0-71.494937-29.670399H249.159957a103.846396 103.846396 0 0 0-71.494937 29.670399 100.450387 100.450387 0 0 0-28.419238 71.494938v232.358545H124.043817a111.889577 111.889577 0 0 0-77.572007 31.815247A109.208516 109.208516 0 0 0 16.801411 434.332101l-1.787373 8.579392z m110.102203 551.940914a91.334782 91.334782 0 0 1-66.847766-28.061762 93.658368 93.658368 0 0 1-27.704289-66.669029v-428.969623L145.313561 532.637639c90.79857 50.046456 183.741988 100.092912 273.468134 148.530732l93.300893 50.403931 92.585944-50.046456c89.368671-48.616557 183.027039-98.841751 274.183084-148.888207l116.000535-61.664383v430.042047a93.300893 93.300893 0 0 1-28.061763 65.775342 91.692257 91.692257 0 0 1-59.519535 27.704288zM43.254538 492.779212v407.163667a80.610542 80.610542 0 0 0 23.950804 57.195949 78.108219 78.108219 0 0 0 56.838475 24.129542h783.227036a78.465694 78.465694 0 0 0 50.582668-23.950804 79.35938 79.35938 0 0 0 24.129541-55.408576V492.779212l-96.518165 51.11888c-90.977308 50.046456-184.099463 100.450387-274.183084 148.888206l-98.84175 53.621203-99.735438-53.621203c-89.368671-48.43782-182.669564-98.663013-273.468134-148.709469z m469.185525 219.668194L165.153406 524.951933v-411.095888a83.112864 83.112864 0 0 1 24.487016-60.055747 86.508874 86.508874 0 0 1 59.519535-24.308279h525.487788a86.508874 86.508874 0 0 1 60.055747 24.487016 83.112864 83.112864 0 0 1 24.487016 60.055747v411.095889zM178.558706 517.08749l333.881357 180.167242 333.881356-180.167242V113.856045a69.886301 69.886301 0 0 0-20.554794-50.582668 72.746099 72.746099 0 0 0-50.582668-20.554795H249.159957a72.746099 72.746099 0 0 0-50.582668 20.554795 69.886301 69.886301 0 0 0-20.554795 50.582668z m333.881357 5.362121c-3.932222 0-14.477725 0-67.383978-44.505599a1303.531441 1303.531441 0 0 1-75.069684-71.494937 215.557235 215.557235 0 0 1-31.457773-50.761405 110.459678 110.459678 0 0 1-13.047826-48.974032 131.19321 131.19321 0 0 1 31.993985-88.11751 112.604526 112.604526 0 0 1 81.682965-37.177368 97.054377 97.054377 0 0 1 60.234485 23.057118 156.0377 156.0377 0 0 1 14.12025 13.226563 131.014472 131.014472 0 0 1 21.627218-19.124896 90.619833 90.619833 0 0 1 51.11888-16.980047 112.425789 112.425789 0 0 1 81.146754 36.99863 131.19321 131.19321 0 0 1 32.351459 88.11751 119.575282 119.575282 0 0 1-13.047826 50.225193 210.731327 210.731327 0 0 1-32.708934 48.974032 765.532039 765.532039 0 0 1-73.818522 71.494937c-15.371411 13.584038-52.370041 45.04181-67.741453 45.041811z m-73.282311-327.089338a99.199225 99.199225 0 0 0-71.494937 32.887671 117.609172 117.609172 0 0 0-29.134187 78.465694 97.948064 97.948064 0 0 0 11.617927 43.254437 202.688147 202.688147 0 0 0 29.849137 47.365396c17.873734 19.661108 48.259083 47.901608 73.639785 70.243775 47.544133 39.858427 57.732162 41.109589 58.804586 41.288327 5.004646 0 26.453127-12.690351 58.804586-41.109589a755.165274 755.165274 0 0 0 72.567361-70.422513 196.611077 196.611077 0 0 0 30.564085-45.935497 107.242406 107.242406 0 0 0 11.796665-44.505599 117.787909 117.787909 0 0 0-28.776712-79.001905 99.020488 99.020488 0 0 0-71.494937-32.708934 77.572007 77.572007 0 0 0-43.611912 14.656462 126.903513 126.903513 0 0 0-25.023228 22.342168l-5.183383 6.07707-5.004645-6.255807a128.869624 128.869624 0 0 0-17.873735-17.873735 84.185288 84.185288 0 0 0-50.046456-19.124895z m436.476591 321.727217v-155.501488h24.665754a95.088266 95.088266 0 0 1 66.847766 27.883026 91.870994 91.870994 0 0 1 27.883026 58.089636v4.468434z m13.405301-140.845026v118.681596l92.943418-49.867719a77.572007 77.572007 0 0 0-23.235854-45.399285 81.861703 81.861703 0 0 0-57.553424-24.129541zM149.245782 516.372541l-119.75402-63.809231v-4.468434a91.870994 91.870994 0 0 1 28.061763-58.268374 94.909529 94.909529 0 0 1 66.490292-28.2405h25.201965z m-105.455032-71.494937l92.049731 48.974032v-118.324121h-11.796664a81.682966 81.682966 0 0 0-57.374687 23.950804 77.750744 77.750744 0 0 0-22.87838 45.578022z m468.649313 47.72287c-2.859797 0-4.289696 0-48.259083-37.713579a900.299996 900.299996 0 0 1-71.494937-68.277665 163.187194 163.187194 0 0 1-28.419237-42.896962 85.793925 85.793925 0 0 1-9.651817-35.747469 100.092912 100.092912 0 0 1 25.55944-67.741453 78.286956 78.286956 0 0 1 58.983323-28.061763 66.669029 66.669029 0 0 1 41.288326 16.086361 132.623108 132.623108 0 0 1 25.380703 30.206611l6.613282 10.188029 6.792019-10.545503a103.846396 103.846396 0 0 1 32.530196-34.853782 63.094282 63.094282 0 0 1 33.960095-11.081716 77.393269 77.393269 0 0 1 59.162061 28.240501 99.914175 99.914175 0 0 1 25.380703 67.562715 86.330137 86.330137 0 0 1-10.009292 35.747469 196.611077 196.611077 0 0 1-28.061762 43.254437 852.9346 852.9346 0 0 1-71.494938 69.350089l-20.733531 16.980047c-22.699643 18.231209-23.772067 19.48237-27.525551 19.482371z m-73.282311-268.106014a64.166706 64.166706 0 0 0-48.974032 23.593329 86.687611 86.687611 0 0 0-21.984693 58.804586 73.99726 73.99726 0 0 0 8.400655 30.92156 150.318105 150.318105 0 0 0 26.095652 40.215903 885.286059 885.286059 0 0 0 70.422513 67.026503c19.839845 17.873734 33.960095 28.597975 39.858428 33.245146 4.110959-3.038535 11.617927-9.294342 18.946158-15.371412l21.091007-16.980047a836.312027 836.312027 0 0 0 70.243775-68.098928 183.384514 183.384514 0 0 0 26.095652-40.215902 73.99726 73.99726 0 0 0 8.221918-30.92156 86.508874 86.508874 0 0 0-21.805956-58.625849 64.524181 64.524181 0 0 0-49.152769-23.772066 50.582668 50.582668 0 0 0-26.810601 9.115604 91.692257 91.692257 0 0 0-28.240501 30.564086l-17.873734 27.883025-17.873734-27.883025a119.396545 119.396545 0 0 0-23.772067-27.525551 53.621203 53.621203 0 0 0-32.887671-12.154139z"  /></svg>