<?xml version="1.0" standalone="no"?><!DOCTYPE svg PUBLIC "-//W3C//DTD SVG 1.1//EN" "http://www.w3.org/Graphics/SVG/1.1/DTD/svg11.dtd"><svg class="icon" width="200px" height="200.00px" viewBox="0 0 1024 1024" version="1.1" xmlns="http://www.w3.org/2000/svg"><path fill="#333333" d="M608.38912 723.03616c-16.73216 0-27.904-11.1616-27.904-27.89376v-251.0848c0-16.73216 11.1616-27.89376 27.904-27.89376s27.89376 11.1616 27.89376 27.89376v251.0848c-5.57056 16.7424-16.73216 27.89376-27.89376 27.89376z m0 0"  /><path fill="#333333" d="M731.14624 533.34016h-251.0848c-16.7424 0-27.89376-11.1616-27.89376-27.89376 0-16.7424 11.1616-27.904 27.89376-27.904h251.0848c16.7424 0 27.904 11.1616 27.904 27.904-0.01024 16.73216-11.17184 27.89376-27.904 27.89376z m0 0M731.14624 633.76384h-251.0848c-16.7424 0-27.89376-11.1616-27.89376-27.89376 0-16.7424 11.1616-27.904 27.89376-27.904h251.0848c16.7424 0 27.904 11.1616 27.904 27.904-0.01024 16.7424-11.17184 27.89376-27.904 27.89376z m0 0M608.38912 471.9616c-5.5808 0-16.73216 0-22.31296-5.5808L468.89984 349.21472c-11.1616-11.1616-11.1616-27.89376 0-39.0656 11.1616-11.1616 27.89376-11.1616 39.05536 0l117.16608 117.17632c11.1616 11.1616 11.1616 27.904 0 39.05536-5.57056 5.5808-11.15136 5.5808-16.73216 5.5808z m0 0"  /><path fill="#333333" d="M608.38912 471.9616c-5.5808 0-16.73216 0-22.31296-5.5808-11.1616-11.1616-11.1616-27.904 0-39.05536l117.17632-117.17632c11.1616-11.1616 27.89376-11.1616 39.05536 0 11.1616 11.1616 11.1616 27.89376 0 39.0656L625.13152 466.3808c-5.5808 5.5808-11.1616 5.5808-16.7424 5.5808z m0 0M330.12736 665.18016h-43.64288V541.51168h50.92352v123.66848M286.48448 359.63904h50.92352v123.66848h-50.92352z"  /><path fill="#333333" d="M1021.2352 396.01152V235.97056c0-43.64288-36.37248-80.0256-80.0256-80.0256H82.7904c-43.64288 0-80.0256 36.37248-80.0256 80.0256v160.04096c29.10208 7.2704 58.20416 29.10208 80.0256 50.92352 14.55104 21.82144 21.82144 43.64288 21.82144 65.47456 0 21.82144-14.55104 50.92352-21.82144 65.47456-21.82144 29.10208-50.92352 43.64288-80.0256 50.92352v160.04096c0 43.64288 36.37248 80.0256 80.0256 80.0256h858.4192c43.64288 0 80.0256-36.37248 80.0256-80.0256V628.80768c-29.10208-7.28064-58.20416-29.10208-72.74496-65.47456-7.28064-14.55104-21.83168-36.37248-21.83168-58.19392 0-21.83168 14.55104-43.65312 21.83168-58.20416 14.5408-21.82144 43.64288-43.65312 72.74496-50.92352z m-43.65312 276.43904v145.50016H337.408v-72.7552h-50.92352v72.7552H53.68832V679.7312c58.20416-36.37248 101.84704-94.57664 101.84704-167.3216S111.89248 381.46048 53.68832 345.088V206.86848h232.79616v72.74496h50.92352v-72.74496h632.90368V352.3584c-58.20416 36.37248-101.84704 87.296-101.84704 160.0512s43.64288 123.66848 109.11744 160.04096z"  /></svg>